<mxfile host="app.diagrams.net" agent="Mozilla/5.0 (Windows NT 10.0; Win64; x64) AppleWebKit/537.36 (KHTML, like Gecko) Chrome/135.0.0.0 Safari/537.36" version="26.2.14">
  <diagram name="第 1 页" id="bXbiH3EwShpQN_3dVzvC">
    <mxGraphModel dx="1042" dy="562" grid="1" gridSize="10" guides="1" tooltips="1" connect="1" arrows="1" fold="1" page="1" pageScale="1" pageWidth="827" pageHeight="1169" math="0" shadow="0">
      <root>
        <mxCell id="0" />
        <mxCell id="1" parent="0" />
        <mxCell id="T0GfKvfOkViN-3Pl21w1-7" style="edgeStyle=none;rounded=0;orthogonalLoop=1;jettySize=auto;html=1;exitX=1;exitY=0.3333333333333333;exitDx=0;exitDy=0;exitPerimeter=0;entryX=0;entryY=0.5;entryDx=0;entryDy=0;fontSize=14;fontFamily=宋体;" parent="1" source="rSCCLJno3e1j1hXcmhqp-1" target="2t82qzao_Dj3ipLsuFm_-3" edge="1">
          <mxGeometry relative="1" as="geometry" />
        </mxCell>
        <mxCell id="T0GfKvfOkViN-3Pl21w1-8" style="edgeStyle=none;rounded=0;orthogonalLoop=1;jettySize=auto;html=1;exitX=1;exitY=0.3333333333333333;exitDx=0;exitDy=0;exitPerimeter=0;entryX=0;entryY=0.5;entryDx=0;entryDy=0;fontSize=14;fontFamily=宋体;" parent="1" source="rSCCLJno3e1j1hXcmhqp-1" target="T0GfKvfOkViN-3Pl21w1-1" edge="1">
          <mxGeometry relative="1" as="geometry" />
        </mxCell>
        <mxCell id="T0GfKvfOkViN-3Pl21w1-9" style="edgeStyle=none;rounded=0;orthogonalLoop=1;jettySize=auto;html=1;exitX=1;exitY=0.3333333333333333;exitDx=0;exitDy=0;exitPerimeter=0;entryX=0;entryY=0.5;entryDx=0;entryDy=0;fontSize=14;fontFamily=宋体;" parent="1" source="rSCCLJno3e1j1hXcmhqp-1" target="T0GfKvfOkViN-3Pl21w1-2" edge="1">
          <mxGeometry relative="1" as="geometry" />
        </mxCell>
        <mxCell id="rSCCLJno3e1j1hXcmhqp-1" value="用户" style="shape=umlActor;verticalLabelPosition=bottom;verticalAlign=top;html=1;outlineConnect=0;fontSize=14;fontFamily=宋体;" parent="1" vertex="1">
          <mxGeometry x="140" y="119.99999999999999" width="30" height="60" as="geometry" />
        </mxCell>
        <mxCell id="2t82qzao_Dj3ipLsuFm_-3" value="查看个人统计信息" style="ellipse;whiteSpace=wrap;html=1;fontSize=14;fontFamily=宋体;" parent="1" vertex="1">
          <mxGeometry x="226.75" y="73.66" width="133.25" height="36.67" as="geometry" />
        </mxCell>
        <mxCell id="T0GfKvfOkViN-3Pl21w1-1" value="管理收藏洗衣点" style="ellipse;whiteSpace=wrap;html=1;fontSize=14;fontFamily=宋体;" parent="1" vertex="1">
          <mxGeometry x="226.75" y="121.99" width="123.25" height="36.67" as="geometry" />
        </mxCell>
        <mxCell id="T0GfKvfOkViN-3Pl21w1-2" value="查看报修记录" style="ellipse;whiteSpace=wrap;html=1;fontSize=14;fontFamily=宋体;" parent="1" vertex="1">
          <mxGeometry x="229.38" y="170.33" width="120.62" height="36.67" as="geometry" />
        </mxCell>
      </root>
    </mxGraphModel>
  </diagram>
</mxfile>
